<svg width="24" height="15" viewBox="0 0 24 15" fill="none" xmlns="http://www.w3.org/2000/svg">
<path d="M15.6698 0.992229H21.6585V2.43873H15.6698V0.992229ZM9.66904 6.71548C10.9929 6.08488 11.6863 5.12552 11.6863 3.64316C11.6863 0.711297 9.49493 0 6.96435 0H0V14.7161H7.15947C9.84315 14.7161 12.3617 13.431 12.3617 10.4423C12.3617 8.59534 11.4852 7.22953 9.66904 6.71548ZM3.24803 2.51046H6.29493C7.46867 2.51046 8.52233 2.83622 8.52233 4.19307C8.52233 5.44232 7.70281 5.94441 6.54109 5.94441H3.24803V2.51046ZM6.7152 12.2176H3.24503V8.16497H6.78424C8.21313 8.16497 9.1167 8.75971 9.1167 10.266C9.1167 11.7484 8.03902 12.2176 6.7152 12.2176ZM24 9.54274C24 6.38972 22.1478 3.7627 18.7977 3.7627C15.5407 3.7627 13.3253 6.20442 13.3253 9.40526C13.3253 12.7227 15.4236 15 18.7977 15C21.3523 15 23.0064 13.8553 23.8019 11.4136H21.2113C20.9291 12.3252 19.7824 12.8033 18.8908 12.8033C17.1677 12.8033 16.2672 11.7992 16.2672 10.0926H23.979C23.988 9.91632 24 9.73102 24 9.54274ZM16.2672 8.24567C16.3602 6.84399 17.2998 5.96832 18.7047 5.96832C20.1816 5.96832 20.9201 6.83204 21.0492 8.24567H16.2672Z" fill="#CDCCCA"/>
</svg>
