<svg width="21" height="20" viewBox="0 0 21 20" fill="none" xmlns="http://www.w3.org/2000/svg">
<path fill-rule="evenodd" clip-rule="evenodd" d="M19.2851 1.67671C19.7878 2.17929 20.1801 2.7813 20.4368 3.44422C20.7328 4.2307 20.8908 5.0624 20.9037 5.90264C20.9658 6.96382 20.9658 7.30759 20.9658 10.0164V10.0166C20.9658 12.7257 20.9514 13.0639 20.9037 14.1306C20.887 14.9601 20.7307 15.7784 20.439 16.5547C20.182 17.2175 19.7896 17.8195 19.2869 18.3222C18.7842 18.8249 18.1822 19.2173 17.5193 19.4744C16.7434 19.7651 15.9237 19.9222 15.0953 19.939C14.0363 20 13.6892 20 10.9813 20C8.27338 20 7.93517 19.9856 6.86731 19.939C6.03716 19.9117 5.21775 19.743 4.44438 19.44C3.78133 19.1834 3.1791 18.7913 2.67617 18.2887C2.17325 17.7862 1.78068 17.1843 1.52355 16.5214C1.23191 15.7441 1.07556 14.9257 1.05892 14.0963C0.996826 13.035 0.996826 12.6902 0.996826 9.98226C0.996826 7.27323 1.01124 6.93502 1.05892 5.86826C1.07513 5.03974 1.23225 4.22002 1.52355 3.44422C1.77996 2.78113 2.17215 2.17896 2.67495 1.67635C3.17776 1.17373 3.78008 0.781771 4.44327 0.525615C5.21811 0.233535 6.03718 0.0760221 6.86509 0.0598801C7.92408 0 8.27117 0 10.9791 0C13.687 0 14.0252 0.0133066 15.0931 0.0598801C15.9216 0.0768919 16.7413 0.234372 17.5171 0.525615C18.1801 0.78207 18.7823 1.17414 19.2851 1.67671ZM18.7413 15.886C18.9624 15.2864 19.0791 14.6533 19.0862 14.0142V14.0153H19.0984C19.1461 12.9552 19.1461 12.6647 19.1461 9.96373V9.96341C19.1461 7.26103 19.1339 6.96496 19.0862 5.9104C19.0759 5.27851 18.9593 4.65286 18.7413 4.05966C18.5747 3.62838 18.3197 3.2367 17.9928 2.90977C17.6659 2.58284 17.2742 2.32787 16.8429 2.16123C16.25 1.94064 15.6236 1.82398 14.9911 1.81637C13.9188 1.75538 13.6415 1.75538 10.9392 1.75538C8.23679 1.75538 7.94071 1.76868 6.88616 1.81637C6.25412 1.8252 5.62822 1.94183 5.03542 2.16123C4.1605 2.49612 3.46744 3.18474 3.12923 4.05966C2.90818 4.65893 2.79153 5.29166 2.78436 5.93036C2.72559 7.00488 2.72559 7.28099 2.72559 9.98337C2.72559 12.6846 2.73668 12.9818 2.78436 14.0353C2.79469 14.6672 2.91127 15.2928 3.12923 15.886C3.29649 16.318 3.55258 16.7102 3.88094 17.037C4.20929 17.3638 4.6026 17.6181 5.03542 17.7833C5.62792 18.0038 6.25401 18.1205 6.88616 18.1282C7.95957 18.1892 8.23568 18.1892 10.9392 18.1892C13.6404 18.1892 13.9376 18.177 14.9911 18.1282C15.6235 18.12 16.2499 18.0034 16.8429 17.7833C17.2742 17.617 17.666 17.3623 17.9929 17.0356C18.3199 16.7088 18.5748 16.3172 18.7413 15.886ZM16.3035 5.85498C16.9637 5.85498 17.4989 5.31978 17.4989 4.65959C17.4989 3.9994 16.9637 3.4642 16.3035 3.4642C15.6433 3.4642 15.1082 3.9994 15.1082 4.65959C15.1082 5.31978 15.6433 5.85498 16.3035 5.85498ZM10.9738 4.84812C9.61389 4.84812 8.30969 5.38834 7.34809 6.34994C6.38649 7.31154 5.84627 8.61574 5.84627 9.97565C5.84627 11.3356 6.38649 12.6398 7.34809 13.6014C8.30969 14.563 9.61389 15.1032 10.9738 15.1032C12.3337 15.1032 13.6379 14.563 14.5995 13.6014C15.5611 12.6398 16.1013 11.3356 16.1013 9.97565C16.1013 8.61574 15.5611 7.31154 14.5995 6.34994C13.6379 5.38834 12.3337 4.84812 10.9738 4.84812ZM10.9738 13.3057C10.0903 13.3057 9.24305 12.9547 8.61834 12.33C7.99364 11.7053 7.64268 10.858 7.64268 9.97454C7.64268 9.09107 7.99364 8.24379 8.61834 7.61908C9.24305 6.99438 10.0903 6.64342 10.9738 6.64342C11.8573 6.64342 12.7045 6.99438 13.3293 7.61908C13.954 8.24379 14.3049 9.09107 14.3049 9.97454C14.3049 10.858 13.954 11.7053 13.3293 12.33C12.7045 12.9547 11.8573 13.3057 10.9738 13.3057Z" fill="#CDCCCA"/>
</svg>
