<svg width="21" height="21" viewBox="0 0 21 21" fill="none" xmlns="http://www.w3.org/2000/svg">
<path fill-rule="evenodd" clip-rule="evenodd" d="M5.04782 2.52391C5.04782 3.91782 3.91782 5.04782 2.52391 5.04782C1.12999 5.04782 0 3.91782 0 2.52391C0 1.12999 1.12999 0 2.52391 0C3.91782 0 5.04782 1.12999 5.04782 2.52391ZM7.43127 20.963V6.96041H11.6047V8.87526H11.6635C12.2438 7.77595 13.6626 6.61435 15.7793 6.61435C20.1881 6.61435 21.0002 9.51316 21.0002 13.2852V20.9642H16.6502V14.1538C16.6502 12.5308 16.6225 10.4417 14.3882 10.4417C12.1226 10.4417 11.7789 12.2112 11.7789 14.0384V20.963H7.43127ZM4.70088 6.96041H0.346332V20.963H4.70088V6.96041Z" fill="#CDCCCA"/>
</svg>
