<svg width="22" height="16" viewBox="0 0 22 16" fill="none" xmlns="http://www.w3.org/2000/svg">
<path d="M11 8L0 2.60417V1.33333C0 0.958333 0.136068 0.642361 0.408203 0.385417C0.680339 0.128472 1.0026 0 1.375 0H20.625C20.9974 0 21.3197 0.128472 21.5918 0.385417C21.8639 0.642361 22 0.958333 22 1.33333V2.60417L11 8ZM10.3125 9.33333H11.6875L22 4.14583V14.6667C22 15.0278 21.8639 15.3403 21.5918 15.6042C21.3197 15.8681 20.9974 16 20.625 16H1.375C1.0026 16 0.680339 15.8681 0.408203 15.6042C0.136068 15.3403 0 15.0278 0 14.6667V4.14583L10.3125 9.33333Z" fill="#CDCCCA"/>
</svg>
