<svg width="22" height="18" viewBox="0 0 22 18" fill="none" xmlns="http://www.w3.org/2000/svg">
<path d="M22 2.13513C21.191 2.49594 20.3219 2.73973 19.4082 2.84992C20.3509 2.28218 21.0562 1.38861 21.3925 0.33596C20.5068 0.865461 19.5374 1.23817 18.5265 1.43789C17.8467 0.707364 16.9462 0.22316 15.965 0.0604525C14.9837 -0.102255 13.9766 0.0656378 13.0999 0.538065C12.2231 1.01049 11.5259 1.76102 11.1164 2.67313C10.7069 3.58523 10.6081 4.60789 10.8353 5.58232C9.04057 5.49162 7.28485 5.02214 5.68208 4.20432C4.07931 3.38651 2.66531 2.23865 1.53184 0.835242C1.14428 1.5081 0.921431 2.28823 0.921431 3.11906C0.920998 3.86701 1.104 4.60349 1.45421 5.26318C1.80442 5.92286 2.311 6.48535 2.92901 6.90073C2.21228 6.87778 1.51137 6.68287 0.884612 6.33221V6.39072C0.88454 7.43974 1.24508 8.45648 1.90505 9.26841C2.56502 10.0803 3.48377 10.6375 4.50542 10.8453C3.84054 11.0264 3.14346 11.053 2.46684 10.9233C2.75508 11.8259 3.31656 12.6152 4.07267 13.1807C4.82878 13.7462 5.74166 14.0595 6.68352 14.0769C5.08466 15.3402 3.11008 16.0254 1.07742 16.0224C0.71736 16.0225 0.357601 16.0013 0 15.959C2.06326 17.2941 4.46505 18.0027 6.918 18C15.2215 18 19.7609 11.0783 19.7609 5.07523C19.7609 4.8802 19.756 4.68322 19.7473 4.48819C20.6302 3.84553 21.3924 3.04973 21.9981 2.13805L22 2.13513Z" fill="#CDCCCA"/>
</svg>
