<svg width="431" height="106" viewBox="0 0 431 106" fill="none" xmlns="http://www.w3.org/2000/svg">
<path d="M429.762 53.3574C429.762 60.3144 423.974 67.0914 413.116 73.3598C402.295 79.6068 386.604 85.2495 367.171 89.9948C328.313 99.4835 274.604 105.357 215.262 105.357C155.919 105.357 102.211 99.4835 63.3524 89.9948C43.9193 85.2495 28.2282 79.6068 17.4075 73.3598C6.54984 67.0914 0.761719 60.3144 0.761719 53.3574C0.761719 46.4004 6.54984 39.6234 17.4075 33.3551C28.2282 27.108 43.9193 21.4653 63.3524 16.72C102.211 7.23139 155.919 1.35742 215.262 1.35742C274.604 1.35742 328.313 7.23139 367.171 16.72C386.604 21.4653 402.295 27.108 413.116 33.3551C423.974 39.6234 429.762 46.4004 429.762 53.3574Z" stroke="#FAF7F5"/>
</svg>
