<svg width="43" height="29" viewBox="0 0 43 29" fill="none" xmlns="http://www.w3.org/2000/svg">
<mask id="path-1-inside-1_1971_776" fill="white">
<path fill-rule="evenodd" clip-rule="evenodd" d="M28.284 21.2132L28.2843 21.2135L21.2132 28.2846L0 7.07138L7.07107 0.000312448L21.2129 14.1422L35.3551 0L42.4261 7.07107L28.284 21.2132Z"/>
</mask>
<path d="M28.284 21.2132L27.5769 20.5061L26.8698 21.2132L27.5769 21.9203L28.284 21.2132ZM28.2843 21.2135L28.9914 21.9206L29.6985 21.2135L28.9914 20.5064L28.2843 21.2135ZM21.2132 28.2846L20.5061 28.9917L21.2132 29.6988L21.9203 28.9917L21.2132 28.2846ZM0 7.07138L-0.707107 6.36427L-1.41421 7.07138L-0.707107 7.77849L0 7.07138ZM7.07107 0.000312448L7.77817 -0.706794L7.07107 -1.4139L6.36396 -0.706794L7.07107 0.000312448ZM21.2129 14.1422L20.5058 14.8493L21.2129 15.5564L21.92 14.8493L21.2129 14.1422ZM35.3551 0L36.0622 -0.707107L35.3551 -1.41421L34.648 -0.707107L35.3551 0ZM42.4261 7.07107L43.1332 7.77817L43.8404 7.07107L43.1332 6.36396L42.4261 7.07107ZM27.5769 21.9203L27.5772 21.9206L28.9914 20.5064L28.9911 20.5061L27.5769 21.9203ZM27.5772 20.5064L20.5061 27.5775L21.9203 28.9917L28.9914 21.9206L27.5772 20.5064ZM21.9203 27.5775L0.707107 6.36427L-0.707107 7.77849L20.5061 28.9917L21.9203 27.5775ZM0.707107 7.77849L7.77817 0.707419L6.36396 -0.706794L-0.707107 6.36427L0.707107 7.77849ZM6.36396 0.707419L20.5058 14.8493L21.92 13.4351L7.77817 -0.706794L6.36396 0.707419ZM21.92 14.8493L36.0622 0.707107L34.648 -0.707107L20.5058 13.4351L21.92 14.8493ZM34.648 0.707107L41.719 7.77817L43.1332 6.36396L36.0622 -0.707107L34.648 0.707107ZM41.719 6.36396L27.5769 20.5061L28.9911 21.9203L43.1332 7.77817L41.719 6.36396Z" fill="#121212" mask="url(#path-1-inside-1_1971_776)"/>
</svg>
