<svg width="29" height="14" viewBox="0 0 29 14" fill="none" xmlns="http://www.w3.org/2000/svg">
<path fill-rule="evenodd" clip-rule="evenodd" d="M22.7861 4.60224C21.7558 3.59796 20.958 2.40134 20.1502 0.726984L21.0509 0.29248C21.8263 1.89976 22.5628 2.98814 23.4841 3.88615C24.8139 5.18239 27 6.5 29 7C27 7.5 24.8035 8.76856 23.4841 10.0547C22.5628 10.9527 21.8263 12.0411 21.0509 13.6484L20.1502 13.2139C20.958 11.5395 21.7558 10.3429 22.7861 9.33861C23.4789 8.66328 24.2662 8.08554 25.2093 7.50973L0 7.50973V6.50973L25.3391 6.50973C24.338 5.9077 23.5104 5.30831 22.7861 4.60224Z" fill="#838383"/>
</svg>
