<svg width="151" height="69" viewBox="0 0 151 69" fill="none" xmlns="http://www.w3.org/2000/svg">
<g filter="url(#filter0_d_2234_1942)">
<mask id="path-1-outside-1_2234_1942" maskUnits="userSpaceOnUse" x="4" y="0" width="143" height="61" fill="black">
<rect fill="white" x="4" width="143" height="61"/>
<path d="M13.9076 6.89363C15.5457 6.89363 17.0201 7.28654 18.3306 8.07235C19.6412 8.83693 20.665 9.90947 21.4022 11.29C22.1394 12.6704 22.508 14.2102 22.508 15.9093C22.508 18.5004 21.6889 20.6561 20.0507 22.3764C18.433 24.0754 16.3853 24.9249 13.9076 24.9249C11.7779 24.9249 9.94524 24.2347 8.40945 22.8542V30.6911H5V7.30778H7.30368L7.94871 9.41037C9.54593 7.73254 11.5322 6.89363 13.9076 6.89363ZM9.76094 19.9552C10.7848 21.0171 12.0749 21.5481 13.6311 21.5481C15.2079 21.5481 16.5082 21.0171 17.532 19.9552C18.5559 18.872 19.0678 17.5234 19.0678 15.9093C19.0678 14.2952 18.5559 12.9572 17.532 11.8952C16.5082 10.8121 15.2181 10.2705 13.6618 10.2705C12.638 10.2705 11.7063 10.5148 10.8667 11.0032C10.0271 11.4917 9.37188 12.1713 8.9009 13.0421C8.4504 13.8916 8.22515 14.8474 8.22515 15.9093C8.22515 17.5234 8.73708 18.872 9.76094 19.9552Z"/>
<path d="M40.0606 7.30778H42.7021V24.5108H39.9377L39.5999 22.4082C38.0026 24.086 36.0061 24.9249 33.6103 24.9249C31.1325 24.9249 29.0644 24.0648 27.4057 22.3445C25.7675 20.6242 24.9484 18.4791 24.9484 15.9093C24.9484 13.3182 25.7675 11.1731 27.4057 9.47408C29.0644 7.75378 31.1325 6.89363 33.6103 6.89363C36.0471 6.89363 38.0641 7.74316 39.6613 9.44223L40.0606 7.30778ZM29.9551 19.9552C30.9994 21.0171 32.2997 21.5481 33.856 21.5481C35.4328 21.5481 36.7228 21.0171 37.7262 19.9552C38.7501 18.872 39.262 17.5234 39.262 15.9093C39.262 14.2739 38.7501 12.9253 37.7262 11.8634C36.7228 10.8015 35.4328 10.2705 33.856 10.2705C32.8322 10.2705 31.9004 10.5148 31.0609 11.0032C30.2418 11.4917 29.5968 12.1713 29.1258 13.0421C28.6548 13.8916 28.4193 14.8474 28.4193 15.9093C28.4193 17.5234 28.9312 18.872 29.9551 19.9552Z"/>
<path d="M56.3488 6.92549C58.2737 6.92549 59.7992 7.59449 60.9255 8.93251C62.0722 10.2705 62.6456 12.0121 62.6456 14.1571V24.5108H59.2361V14.858C59.2361 13.3076 58.9085 12.1289 58.2532 11.3218C57.6184 10.4935 56.6765 10.0794 55.4273 10.0794C54.1373 10.0794 53.0725 10.5679 52.2329 11.5448C51.3933 12.5218 50.9736 13.7748 50.9736 15.304V24.5108H47.5641V7.30778H49.9292L50.605 9.69708C51.2398 8.82631 52.0486 8.14669 53.0315 7.65821C54.0349 7.16973 55.1407 6.92549 56.3488 6.92549Z"/>
<path d="M81.2471 22.3764C79.5679 24.0754 77.4588 24.9249 74.9196 24.9249C72.3804 24.9249 70.2611 24.0754 68.5615 22.3764C66.8823 20.6561 66.0428 18.5004 66.0428 15.9093C66.0428 14.2102 66.4216 12.6704 67.1792 11.29C67.9574 9.90947 69.0222 8.83693 70.3737 8.07235C71.7456 7.28654 73.261 6.89363 74.9196 6.89363C76.5783 6.89363 78.0833 7.28654 79.4348 8.07235C80.8068 8.83693 81.8716 9.90947 82.6293 11.29C83.4074 12.6704 83.7965 14.2102 83.7965 15.9093C83.7965 18.5004 82.9467 20.6561 81.2471 22.3764ZM74.9196 21.5481C75.9639 21.5481 76.8957 21.3144 77.7147 20.8472C78.5338 20.3587 79.1686 19.6897 79.6191 18.8402C80.0901 17.9694 80.3256 16.9924 80.3256 15.9093C80.3256 14.2739 79.8137 12.9253 78.7898 11.8634C77.7864 10.8015 76.4964 10.2705 74.9196 10.2705C73.3429 10.2705 72.0426 10.8015 71.0187 11.8634C70.0153 12.9253 69.5136 14.2739 69.5136 15.9093C69.5136 17.5446 70.0153 18.8933 71.0187 19.9552C72.0426 21.0171 73.3429 21.5481 74.9196 21.5481Z"/>
<path d="M96.3362 6.89363C97.9743 6.89363 99.4487 7.28654 100.759 8.07235C102.07 8.83693 103.094 9.90947 103.831 11.29C104.568 12.6704 104.937 14.2102 104.937 15.9093C104.937 18.5004 104.117 20.6561 102.479 22.3764C100.862 24.0754 98.8139 24.9249 96.3362 24.9249C94.2065 24.9249 92.3738 24.2347 90.8381 22.8542V30.6911H87.4286V7.30778H89.7323L90.3773 9.41037C91.9745 7.73254 93.9608 6.89363 96.3362 6.89363ZM92.1895 19.9552C93.2134 21.0171 94.5035 21.5481 96.0597 21.5481C97.6365 21.5481 98.9368 21.0171 99.9606 19.9552C100.984 18.872 101.496 17.5234 101.496 15.9093C101.496 14.2952 100.984 12.9572 99.9606 11.8952C98.9368 10.8121 97.6467 10.2705 96.0904 10.2705C95.0666 10.2705 94.1349 10.5148 93.2953 11.0032C92.4557 11.4917 91.8005 12.1713 91.3295 13.0421C90.879 13.8916 90.6537 14.8474 90.6537 15.9093C90.6537 17.5234 91.1657 18.872 92.1895 19.9552Z"/>
<path d="M115.798 21.2932H117.672V24.5108H115.153C113.945 24.5108 112.901 24.2666 112.02 23.7781C111.14 23.2896 110.464 22.5887 109.993 21.6755C109.522 20.741 109.286 19.6472 109.286 18.3942V10.3342H106.307V9.66523L112.082 3.29374H112.665V7.30778H117.58V10.3342H112.696V18.1075C112.696 19.1269 112.962 19.9127 113.495 20.4649C114.027 21.0171 114.795 21.2932 115.798 21.2932Z"/>
<path d="M120.933 4.63175V1H124.465V4.63175H120.933ZM120.994 24.5108V7.30778H124.403V24.5108H120.994Z"/>
<path d="M136.707 24.9249C134.249 24.9249 132.181 24.0648 130.502 22.3445C128.844 20.603 128.014 18.4579 128.014 15.9093C128.014 13.3395 128.844 11.1944 130.502 9.47408C132.181 7.75378 134.26 6.89363 136.737 6.89363C138.765 6.89363 140.526 7.4883 142.021 8.67765C143.515 9.86699 144.488 11.4492 144.939 13.4244H141.56C141.13 12.4474 140.485 11.6829 139.625 11.1307C138.765 10.5572 137.792 10.2705 136.707 10.2705C135.744 10.2705 134.864 10.5148 134.065 11.0032C133.267 11.4917 132.632 12.1713 132.161 13.0421C131.71 13.8916 131.485 14.8474 131.485 15.9093C131.485 17.5022 131.987 18.8402 132.99 19.9233C133.994 21.0065 135.232 21.5481 136.707 21.5481C137.792 21.5481 138.754 21.2613 139.594 20.6879C140.454 20.1145 141.109 19.2968 141.56 18.2349H145C144.529 20.2525 143.536 21.8773 142.021 23.1091C140.526 24.3197 138.754 24.9249 136.707 24.9249Z"/>
<path d="M13.8769 36.2025C16.3751 36.2025 18.433 37.0626 20.0507 38.7829C21.6889 40.482 22.508 42.6271 22.508 45.2181C22.508 47.8092 21.6889 49.9649 20.0507 51.6852C18.433 53.3843 16.3751 54.2338 13.8769 54.2338C11.5629 54.2338 9.60736 53.448 8.01014 51.8764L7.58012 53.8197H5V30.4363H8.40945V38.2095C9.94524 36.8715 11.7677 36.2025 13.8769 36.2025ZM9.69951 49.2322C10.7438 50.3153 12.0441 50.8569 13.6004 50.8569C15.1567 50.8569 16.4467 50.326 17.4706 49.264C18.4945 48.1809 19.0064 46.8323 19.0064 45.2181C19.0064 43.604 18.4945 42.266 17.4706 41.2041C16.4467 40.121 15.1567 39.5794 13.6004 39.5794C12.5766 39.5794 11.6448 39.8236 10.8053 40.3121C9.98619 40.8006 9.34116 41.4802 8.87019 42.351C8.39921 43.2005 8.16372 44.1562 8.16372 45.2181C8.16372 46.811 8.67565 48.149 9.69951 49.2322Z"/>
<path d="M37.4027 36.6166H41.0579L33.4404 54.1382C32.478 56.3258 31.4951 57.8443 30.4917 58.6939C29.5088 59.5646 28.188 60 26.5293 60H24.84V56.8143H26.2529C27.3382 56.8143 28.1368 56.5913 28.6487 56.1453C29.1607 55.6993 29.7238 54.7754 30.3381 53.3737L30.7067 52.5772L23.4885 36.6166H27.2051L32.4575 48.6269L37.4027 36.6166Z"/>
<path d="M51.1571 50.6021H53.0308V53.8197H50.5121C49.304 53.8197 48.2596 53.5754 47.3791 53.0869C46.4986 52.5985 45.8228 51.8976 45.3519 50.9843C44.8809 50.0499 44.6454 48.9561 44.6454 47.703V39.6431H41.666V38.9741L47.4405 32.6026H48.0241V36.6166H52.9387V39.6431H48.0548V47.4163C48.0548 48.4357 48.3211 49.2216 48.8535 49.7738C49.3859 50.326 50.1538 50.6021 51.1571 50.6021Z"/>
<path d="M71.9301 45.25C71.9301 45.5686 71.9096 45.9615 71.8687 46.4287H58.4152C58.6199 47.8092 59.1728 48.903 60.0738 49.71C60.9953 50.5171 62.1318 50.9206 63.4833 50.9206C64.1385 50.9206 64.7529 50.8251 65.3262 50.6339C65.8996 50.4215 66.4013 50.1348 66.8313 49.7738C67.2818 49.3915 67.6504 48.9349 67.9371 48.4039H71.5308C70.8755 50.2304 69.8312 51.664 68.3978 52.7046C66.9644 53.7241 65.3262 54.2338 63.4833 54.2338C61.0465 54.2338 59.009 53.3737 57.3708 51.6534C55.7531 49.933 54.9443 47.788 54.9443 45.2181C54.9443 42.6483 55.7531 40.5032 57.3708 38.7829C59.009 37.0626 61.0465 36.2025 63.4833 36.2025C65.1419 36.2025 66.6163 36.6166 67.9063 37.4449C69.1964 38.252 70.1895 39.3458 70.8858 40.7262C71.582 42.0855 71.9301 43.5934 71.9301 45.25ZM63.4833 39.3882C62.2137 39.3882 61.1284 39.7599 60.2274 40.5032C59.3469 41.2466 58.7633 42.266 58.4766 43.5616H68.5207C68.3159 42.6908 67.978 41.9474 67.507 41.3315C67.0361 40.6944 66.4525 40.2165 65.7562 39.898C65.0805 39.5581 64.3228 39.3882 63.4833 39.3882Z"/>
</mask>
<path d="M13.9076 6.89363C15.5457 6.89363 17.0201 7.28654 18.3306 8.07235C19.6412 8.83693 20.665 9.90947 21.4022 11.29C22.1394 12.6704 22.508 14.2102 22.508 15.9093C22.508 18.5004 21.6889 20.6561 20.0507 22.3764C18.433 24.0754 16.3853 24.9249 13.9076 24.9249C11.7779 24.9249 9.94524 24.2347 8.40945 22.8542V30.6911H5V7.30778H7.30368L7.94871 9.41037C9.54593 7.73254 11.5322 6.89363 13.9076 6.89363ZM9.76094 19.9552C10.7848 21.0171 12.0749 21.5481 13.6311 21.5481C15.2079 21.5481 16.5082 21.0171 17.532 19.9552C18.5559 18.872 19.0678 17.5234 19.0678 15.9093C19.0678 14.2952 18.5559 12.9572 17.532 11.8952C16.5082 10.8121 15.2181 10.2705 13.6618 10.2705C12.638 10.2705 11.7063 10.5148 10.8667 11.0032C10.0271 11.4917 9.37188 12.1713 8.9009 13.0421C8.4504 13.8916 8.22515 14.8474 8.22515 15.9093C8.22515 17.5234 8.73708 18.872 9.76094 19.9552Z" fill="#FAF7F5"/>
<path d="M40.0606 7.30778H42.7021V24.5108H39.9377L39.5999 22.4082C38.0026 24.086 36.0061 24.9249 33.6103 24.9249C31.1325 24.9249 29.0644 24.0648 27.4057 22.3445C25.7675 20.6242 24.9484 18.4791 24.9484 15.9093C24.9484 13.3182 25.7675 11.1731 27.4057 9.47408C29.0644 7.75378 31.1325 6.89363 33.6103 6.89363C36.0471 6.89363 38.0641 7.74316 39.6613 9.44223L40.0606 7.30778ZM29.9551 19.9552C30.9994 21.0171 32.2997 21.5481 33.856 21.5481C35.4328 21.5481 36.7228 21.0171 37.7262 19.9552C38.7501 18.872 39.262 17.5234 39.262 15.9093C39.262 14.2739 38.7501 12.9253 37.7262 11.8634C36.7228 10.8015 35.4328 10.2705 33.856 10.2705C32.8322 10.2705 31.9004 10.5148 31.0609 11.0032C30.2418 11.4917 29.5968 12.1713 29.1258 13.0421C28.6548 13.8916 28.4193 14.8474 28.4193 15.9093C28.4193 17.5234 28.9312 18.872 29.9551 19.9552Z" fill="#FAF7F5"/>
<path d="M56.3488 6.92549C58.2737 6.92549 59.7992 7.59449 60.9255 8.93251C62.0722 10.2705 62.6456 12.0121 62.6456 14.1571V24.5108H59.2361V14.858C59.2361 13.3076 58.9085 12.1289 58.2532 11.3218C57.6184 10.4935 56.6765 10.0794 55.4273 10.0794C54.1373 10.0794 53.0725 10.5679 52.2329 11.5448C51.3933 12.5218 50.9736 13.7748 50.9736 15.304V24.5108H47.5641V7.30778H49.9292L50.605 9.69708C51.2398 8.82631 52.0486 8.14669 53.0315 7.65821C54.0349 7.16973 55.1407 6.92549 56.3488 6.92549Z" fill="#FAF7F5"/>
<path d="M81.2471 22.3764C79.5679 24.0754 77.4588 24.9249 74.9196 24.9249C72.3804 24.9249 70.2611 24.0754 68.5615 22.3764C66.8823 20.6561 66.0428 18.5004 66.0428 15.9093C66.0428 14.2102 66.4216 12.6704 67.1792 11.29C67.9574 9.90947 69.0222 8.83693 70.3737 8.07235C71.7456 7.28654 73.261 6.89363 74.9196 6.89363C76.5783 6.89363 78.0833 7.28654 79.4348 8.07235C80.8068 8.83693 81.8716 9.90947 82.6293 11.29C83.4074 12.6704 83.7965 14.2102 83.7965 15.9093C83.7965 18.5004 82.9467 20.6561 81.2471 22.3764ZM74.9196 21.5481C75.9639 21.5481 76.8957 21.3144 77.7147 20.8472C78.5338 20.3587 79.1686 19.6897 79.6191 18.8402C80.0901 17.9694 80.3256 16.9924 80.3256 15.9093C80.3256 14.2739 79.8137 12.9253 78.7898 11.8634C77.7864 10.8015 76.4964 10.2705 74.9196 10.2705C73.3429 10.2705 72.0426 10.8015 71.0187 11.8634C70.0153 12.9253 69.5136 14.2739 69.5136 15.9093C69.5136 17.5446 70.0153 18.8933 71.0187 19.9552C72.0426 21.0171 73.3429 21.5481 74.9196 21.5481Z" fill="#FAF7F5"/>
<path d="M96.3362 6.89363C97.9743 6.89363 99.4487 7.28654 100.759 8.07235C102.07 8.83693 103.094 9.90947 103.831 11.29C104.568 12.6704 104.937 14.2102 104.937 15.9093C104.937 18.5004 104.117 20.6561 102.479 22.3764C100.862 24.0754 98.8139 24.9249 96.3362 24.9249C94.2065 24.9249 92.3738 24.2347 90.8381 22.8542V30.6911H87.4286V7.30778H89.7323L90.3773 9.41037C91.9745 7.73254 93.9608 6.89363 96.3362 6.89363ZM92.1895 19.9552C93.2134 21.0171 94.5035 21.5481 96.0597 21.5481C97.6365 21.5481 98.9368 21.0171 99.9606 19.9552C100.984 18.872 101.496 17.5234 101.496 15.9093C101.496 14.2952 100.984 12.9572 99.9606 11.8952C98.9368 10.8121 97.6467 10.2705 96.0904 10.2705C95.0666 10.2705 94.1349 10.5148 93.2953 11.0032C92.4557 11.4917 91.8005 12.1713 91.3295 13.0421C90.879 13.8916 90.6537 14.8474 90.6537 15.9093C90.6537 17.5234 91.1657 18.872 92.1895 19.9552Z" fill="#FAF7F5"/>
<path d="M115.798 21.2932H117.672V24.5108H115.153C113.945 24.5108 112.901 24.2666 112.02 23.7781C111.14 23.2896 110.464 22.5887 109.993 21.6755C109.522 20.741 109.286 19.6472 109.286 18.3942V10.3342H106.307V9.66523L112.082 3.29374H112.665V7.30778H117.58V10.3342H112.696V18.1075C112.696 19.1269 112.962 19.9127 113.495 20.4649C114.027 21.0171 114.795 21.2932 115.798 21.2932Z" fill="#FAF7F5"/>
<path d="M120.933 4.63175V1H124.465V4.63175H120.933ZM120.994 24.5108V7.30778H124.403V24.5108H120.994Z" fill="#FAF7F5"/>
<path d="M136.707 24.9249C134.249 24.9249 132.181 24.0648 130.502 22.3445C128.844 20.603 128.014 18.4579 128.014 15.9093C128.014 13.3395 128.844 11.1944 130.502 9.47408C132.181 7.75378 134.26 6.89363 136.737 6.89363C138.765 6.89363 140.526 7.4883 142.021 8.67765C143.515 9.86699 144.488 11.4492 144.939 13.4244H141.56C141.13 12.4474 140.485 11.6829 139.625 11.1307C138.765 10.5572 137.792 10.2705 136.707 10.2705C135.744 10.2705 134.864 10.5148 134.065 11.0032C133.267 11.4917 132.632 12.1713 132.161 13.0421C131.71 13.8916 131.485 14.8474 131.485 15.9093C131.485 17.5022 131.987 18.8402 132.99 19.9233C133.994 21.0065 135.232 21.5481 136.707 21.5481C137.792 21.5481 138.754 21.2613 139.594 20.6879C140.454 20.1145 141.109 19.2968 141.56 18.2349H145C144.529 20.2525 143.536 21.8773 142.021 23.1091C140.526 24.3197 138.754 24.9249 136.707 24.9249Z" fill="#FAF7F5"/>
<path d="M13.8769 36.2025C16.3751 36.2025 18.433 37.0626 20.0507 38.7829C21.6889 40.482 22.508 42.6271 22.508 45.2181C22.508 47.8092 21.6889 49.9649 20.0507 51.6852C18.433 53.3843 16.3751 54.2338 13.8769 54.2338C11.5629 54.2338 9.60736 53.448 8.01014 51.8764L7.58012 53.8197H5V30.4363H8.40945V38.2095C9.94524 36.8715 11.7677 36.2025 13.8769 36.2025ZM9.69951 49.2322C10.7438 50.3153 12.0441 50.8569 13.6004 50.8569C15.1567 50.8569 16.4467 50.326 17.4706 49.264C18.4945 48.1809 19.0064 46.8323 19.0064 45.2181C19.0064 43.604 18.4945 42.266 17.4706 41.2041C16.4467 40.121 15.1567 39.5794 13.6004 39.5794C12.5766 39.5794 11.6448 39.8236 10.8053 40.3121C9.98619 40.8006 9.34116 41.4802 8.87019 42.351C8.39921 43.2005 8.16372 44.1562 8.16372 45.2181C8.16372 46.811 8.67565 48.149 9.69951 49.2322Z" fill="#FAF7F5"/>
<path d="M37.4027 36.6166H41.0579L33.4404 54.1382C32.478 56.3258 31.4951 57.8443 30.4917 58.6939C29.5088 59.5646 28.188 60 26.5293 60H24.84V56.8143H26.2529C27.3382 56.8143 28.1368 56.5913 28.6487 56.1453C29.1607 55.6993 29.7238 54.7754 30.3381 53.3737L30.7067 52.5772L23.4885 36.6166H27.2051L32.4575 48.6269L37.4027 36.6166Z" fill="#FAF7F5"/>
<path d="M51.1571 50.6021H53.0308V53.8197H50.5121C49.304 53.8197 48.2596 53.5754 47.3791 53.0869C46.4986 52.5985 45.8228 51.8976 45.3519 50.9843C44.8809 50.0499 44.6454 48.9561 44.6454 47.703V39.6431H41.666V38.9741L47.4405 32.6026H48.0241V36.6166H52.9387V39.6431H48.0548V47.4163C48.0548 48.4357 48.3211 49.2216 48.8535 49.7738C49.3859 50.326 50.1538 50.6021 51.1571 50.6021Z" fill="#FAF7F5"/>
<path d="M71.9301 45.25C71.9301 45.5686 71.9096 45.9615 71.8687 46.4287H58.4152C58.6199 47.8092 59.1728 48.903 60.0738 49.71C60.9953 50.5171 62.1318 50.9206 63.4833 50.9206C64.1385 50.9206 64.7529 50.8251 65.3262 50.6339C65.8996 50.4215 66.4013 50.1348 66.8313 49.7738C67.2818 49.3915 67.6504 48.9349 67.9371 48.4039H71.5308C70.8755 50.2304 69.8312 51.664 68.3978 52.7046C66.9644 53.7241 65.3262 54.2338 63.4833 54.2338C61.0465 54.2338 59.009 53.3737 57.3708 51.6534C55.7531 49.933 54.9443 47.788 54.9443 45.2181C54.9443 42.6483 55.7531 40.5032 57.3708 38.7829C59.009 37.0626 61.0465 36.2025 63.4833 36.2025C65.1419 36.2025 66.6163 36.6166 67.9063 37.4449C69.1964 38.252 70.1895 39.3458 70.8858 40.7262C71.582 42.0855 71.9301 43.5934 71.9301 45.25ZM63.4833 39.3882C62.2137 39.3882 61.1284 39.7599 60.2274 40.5032C59.3469 41.2466 58.7633 42.266 58.4766 43.5616H68.5207C68.3159 42.6908 67.978 41.9474 67.507 41.3315C67.0361 40.6944 66.4525 40.2165 65.7562 39.898C65.0805 39.5581 64.3228 39.3882 63.4833 39.3882Z" fill="#FAF7F5"/>
<path d="M13.9076 6.89363C15.5457 6.89363 17.0201 7.28654 18.3306 8.07235C19.6412 8.83693 20.665 9.90947 21.4022 11.29C22.1394 12.6704 22.508 14.2102 22.508 15.9093C22.508 18.5004 21.6889 20.6561 20.0507 22.3764C18.433 24.0754 16.3853 24.9249 13.9076 24.9249C11.7779 24.9249 9.94524 24.2347 8.40945 22.8542V30.6911H5V7.30778H7.30368L7.94871 9.41037C9.54593 7.73254 11.5322 6.89363 13.9076 6.89363ZM9.76094 19.9552C10.7848 21.0171 12.0749 21.5481 13.6311 21.5481C15.2079 21.5481 16.5082 21.0171 17.532 19.9552C18.5559 18.872 19.0678 17.5234 19.0678 15.9093C19.0678 14.2952 18.5559 12.9572 17.532 11.8952C16.5082 10.8121 15.2181 10.2705 13.6618 10.2705C12.638 10.2705 11.7063 10.5148 10.8667 11.0032C10.0271 11.4917 9.37188 12.1713 8.9009 13.0421C8.4504 13.8916 8.22515 14.8474 8.22515 15.9093C8.22515 17.5234 8.73708 18.872 9.76094 19.9552Z" stroke="black" stroke-width="2" mask="url(#path-1-outside-1_2234_1942)"/>
<path d="M40.0606 7.30778H42.7021V24.5108H39.9377L39.5999 22.4082C38.0026 24.086 36.0061 24.9249 33.6103 24.9249C31.1325 24.9249 29.0644 24.0648 27.4057 22.3445C25.7675 20.6242 24.9484 18.4791 24.9484 15.9093C24.9484 13.3182 25.7675 11.1731 27.4057 9.47408C29.0644 7.75378 31.1325 6.89363 33.6103 6.89363C36.0471 6.89363 38.0641 7.74316 39.6613 9.44223L40.0606 7.30778ZM29.9551 19.9552C30.9994 21.0171 32.2997 21.5481 33.856 21.5481C35.4328 21.5481 36.7228 21.0171 37.7262 19.9552C38.7501 18.872 39.262 17.5234 39.262 15.9093C39.262 14.2739 38.7501 12.9253 37.7262 11.8634C36.7228 10.8015 35.4328 10.2705 33.856 10.2705C32.8322 10.2705 31.9004 10.5148 31.0609 11.0032C30.2418 11.4917 29.5968 12.1713 29.1258 13.0421C28.6548 13.8916 28.4193 14.8474 28.4193 15.9093C28.4193 17.5234 28.9312 18.872 29.9551 19.9552Z" stroke="black" stroke-width="2" mask="url(#path-1-outside-1_2234_1942)"/>
<path d="M56.3488 6.92549C58.2737 6.92549 59.7992 7.59449 60.9255 8.93251C62.0722 10.2705 62.6456 12.0121 62.6456 14.1571V24.5108H59.2361V14.858C59.2361 13.3076 58.9085 12.1289 58.2532 11.3218C57.6184 10.4935 56.6765 10.0794 55.4273 10.0794C54.1373 10.0794 53.0725 10.5679 52.2329 11.5448C51.3933 12.5218 50.9736 13.7748 50.9736 15.304V24.5108H47.5641V7.30778H49.9292L50.605 9.69708C51.2398 8.82631 52.0486 8.14669 53.0315 7.65821C54.0349 7.16973 55.1407 6.92549 56.3488 6.92549Z" stroke="black" stroke-width="2" mask="url(#path-1-outside-1_2234_1942)"/>
<path d="M81.2471 22.3764C79.5679 24.0754 77.4588 24.9249 74.9196 24.9249C72.3804 24.9249 70.2611 24.0754 68.5615 22.3764C66.8823 20.6561 66.0428 18.5004 66.0428 15.9093C66.0428 14.2102 66.4216 12.6704 67.1792 11.29C67.9574 9.90947 69.0222 8.83693 70.3737 8.07235C71.7456 7.28654 73.261 6.89363 74.9196 6.89363C76.5783 6.89363 78.0833 7.28654 79.4348 8.07235C80.8068 8.83693 81.8716 9.90947 82.6293 11.29C83.4074 12.6704 83.7965 14.2102 83.7965 15.9093C83.7965 18.5004 82.9467 20.6561 81.2471 22.3764ZM74.9196 21.5481C75.9639 21.5481 76.8957 21.3144 77.7147 20.8472C78.5338 20.3587 79.1686 19.6897 79.6191 18.8402C80.0901 17.9694 80.3256 16.9924 80.3256 15.9093C80.3256 14.2739 79.8137 12.9253 78.7898 11.8634C77.7864 10.8015 76.4964 10.2705 74.9196 10.2705C73.3429 10.2705 72.0426 10.8015 71.0187 11.8634C70.0153 12.9253 69.5136 14.2739 69.5136 15.9093C69.5136 17.5446 70.0153 18.8933 71.0187 19.9552C72.0426 21.0171 73.3429 21.5481 74.9196 21.5481Z" stroke="black" stroke-width="2" mask="url(#path-1-outside-1_2234_1942)"/>
<path d="M96.3362 6.89363C97.9743 6.89363 99.4487 7.28654 100.759 8.07235C102.07 8.83693 103.094 9.90947 103.831 11.29C104.568 12.6704 104.937 14.2102 104.937 15.9093C104.937 18.5004 104.117 20.6561 102.479 22.3764C100.862 24.0754 98.8139 24.9249 96.3362 24.9249C94.2065 24.9249 92.3738 24.2347 90.8381 22.8542V30.6911H87.4286V7.30778H89.7323L90.3773 9.41037C91.9745 7.73254 93.9608 6.89363 96.3362 6.89363ZM92.1895 19.9552C93.2134 21.0171 94.5035 21.5481 96.0597 21.5481C97.6365 21.5481 98.9368 21.0171 99.9606 19.9552C100.984 18.872 101.496 17.5234 101.496 15.9093C101.496 14.2952 100.984 12.9572 99.9606 11.8952C98.9368 10.8121 97.6467 10.2705 96.0904 10.2705C95.0666 10.2705 94.1349 10.5148 93.2953 11.0032C92.4557 11.4917 91.8005 12.1713 91.3295 13.0421C90.879 13.8916 90.6537 14.8474 90.6537 15.9093C90.6537 17.5234 91.1657 18.872 92.1895 19.9552Z" stroke="black" stroke-width="2" mask="url(#path-1-outside-1_2234_1942)"/>
<path d="M115.798 21.2932H117.672V24.5108H115.153C113.945 24.5108 112.901 24.2666 112.02 23.7781C111.14 23.2896 110.464 22.5887 109.993 21.6755C109.522 20.741 109.286 19.6472 109.286 18.3942V10.3342H106.307V9.66523L112.082 3.29374H112.665V7.30778H117.58V10.3342H112.696V18.1075C112.696 19.1269 112.962 19.9127 113.495 20.4649C114.027 21.0171 114.795 21.2932 115.798 21.2932Z" stroke="black" stroke-width="2" mask="url(#path-1-outside-1_2234_1942)"/>
<path d="M120.933 4.63175V1H124.465V4.63175H120.933ZM120.994 24.5108V7.30778H124.403V24.5108H120.994Z" stroke="black" stroke-width="2" mask="url(#path-1-outside-1_2234_1942)"/>
<path d="M136.707 24.9249C134.249 24.9249 132.181 24.0648 130.502 22.3445C128.844 20.603 128.014 18.4579 128.014 15.9093C128.014 13.3395 128.844 11.1944 130.502 9.47408C132.181 7.75378 134.26 6.89363 136.737 6.89363C138.765 6.89363 140.526 7.4883 142.021 8.67765C143.515 9.86699 144.488 11.4492 144.939 13.4244H141.56C141.13 12.4474 140.485 11.6829 139.625 11.1307C138.765 10.5572 137.792 10.2705 136.707 10.2705C135.744 10.2705 134.864 10.5148 134.065 11.0032C133.267 11.4917 132.632 12.1713 132.161 13.0421C131.71 13.8916 131.485 14.8474 131.485 15.9093C131.485 17.5022 131.987 18.8402 132.99 19.9233C133.994 21.0065 135.232 21.5481 136.707 21.5481C137.792 21.5481 138.754 21.2613 139.594 20.6879C140.454 20.1145 141.109 19.2968 141.56 18.2349H145C144.529 20.2525 143.536 21.8773 142.021 23.1091C140.526 24.3197 138.754 24.9249 136.707 24.9249Z" stroke="black" stroke-width="2" mask="url(#path-1-outside-1_2234_1942)"/>
<path d="M13.8769 36.2025C16.3751 36.2025 18.433 37.0626 20.0507 38.7829C21.6889 40.482 22.508 42.6271 22.508 45.2181C22.508 47.8092 21.6889 49.9649 20.0507 51.6852C18.433 53.3843 16.3751 54.2338 13.8769 54.2338C11.5629 54.2338 9.60736 53.448 8.01014 51.8764L7.58012 53.8197H5V30.4363H8.40945V38.2095C9.94524 36.8715 11.7677 36.2025 13.8769 36.2025ZM9.69951 49.2322C10.7438 50.3153 12.0441 50.8569 13.6004 50.8569C15.1567 50.8569 16.4467 50.326 17.4706 49.264C18.4945 48.1809 19.0064 46.8323 19.0064 45.2181C19.0064 43.604 18.4945 42.266 17.4706 41.2041C16.4467 40.121 15.1567 39.5794 13.6004 39.5794C12.5766 39.5794 11.6448 39.8236 10.8053 40.3121C9.98619 40.8006 9.34116 41.4802 8.87019 42.351C8.39921 43.2005 8.16372 44.1562 8.16372 45.2181C8.16372 46.811 8.67565 48.149 9.69951 49.2322Z" stroke="black" stroke-width="2" mask="url(#path-1-outside-1_2234_1942)"/>
<path d="M37.4027 36.6166H41.0579L33.4404 54.1382C32.478 56.3258 31.4951 57.8443 30.4917 58.6939C29.5088 59.5646 28.188 60 26.5293 60H24.84V56.8143H26.2529C27.3382 56.8143 28.1368 56.5913 28.6487 56.1453C29.1607 55.6993 29.7238 54.7754 30.3381 53.3737L30.7067 52.5772L23.4885 36.6166H27.2051L32.4575 48.6269L37.4027 36.6166Z" stroke="black" stroke-width="2" mask="url(#path-1-outside-1_2234_1942)"/>
<path d="M51.1571 50.6021H53.0308V53.8197H50.5121C49.304 53.8197 48.2596 53.5754 47.3791 53.0869C46.4986 52.5985 45.8228 51.8976 45.3519 50.9843C44.8809 50.0499 44.6454 48.9561 44.6454 47.703V39.6431H41.666V38.9741L47.4405 32.6026H48.0241V36.6166H52.9387V39.6431H48.0548V47.4163C48.0548 48.4357 48.3211 49.2216 48.8535 49.7738C49.3859 50.326 50.1538 50.6021 51.1571 50.6021Z" stroke="black" stroke-width="2" mask="url(#path-1-outside-1_2234_1942)"/>
<path d="M71.9301 45.25C71.9301 45.5686 71.9096 45.9615 71.8687 46.4287H58.4152C58.6199 47.8092 59.1728 48.903 60.0738 49.71C60.9953 50.5171 62.1318 50.9206 63.4833 50.9206C64.1385 50.9206 64.7529 50.8251 65.3262 50.6339C65.8996 50.4215 66.4013 50.1348 66.8313 49.7738C67.2818 49.3915 67.6504 48.9349 67.9371 48.4039H71.5308C70.8755 50.2304 69.8312 51.664 68.3978 52.7046C66.9644 53.7241 65.3262 54.2338 63.4833 54.2338C61.0465 54.2338 59.009 53.3737 57.3708 51.6534C55.7531 49.933 54.9443 47.788 54.9443 45.2181C54.9443 42.6483 55.7531 40.5032 57.3708 38.7829C59.009 37.0626 61.0465 36.2025 63.4833 36.2025C65.1419 36.2025 66.6163 36.6166 67.9063 37.4449C69.1964 38.252 70.1895 39.3458 70.8858 40.7262C71.582 42.0855 71.9301 43.5934 71.9301 45.25ZM63.4833 39.3882C62.2137 39.3882 61.1284 39.7599 60.2274 40.5032C59.3469 41.2466 58.7633 42.266 58.4766 43.5616H68.5207C68.3159 42.6908 67.978 41.9474 67.507 41.3315C67.0361 40.6944 66.4525 40.2165 65.7562 39.898C65.0805 39.5581 64.3228 39.3882 63.4833 39.3882Z" stroke="black" stroke-width="2" mask="url(#path-1-outside-1_2234_1942)"/>
</g>
<defs>
<filter id="filter0_d_2234_1942" x="0" y="0" width="150.261" height="69" filterUnits="userSpaceOnUse" color-interpolation-filters="sRGB">
<feFlood flood-opacity="0" result="BackgroundImageFix"/>
<feColorMatrix in="SourceAlpha" type="matrix" values="0 0 0 0 0 0 0 0 0 0 0 0 0 0 0 0 0 0 127 0" result="hardAlpha"/>
<feOffset dy="4"/>
<feGaussianBlur stdDeviation="2"/>
<feComposite in2="hardAlpha" operator="out"/>
<feColorMatrix type="matrix" values="0 0 0 0 0 0 0 0 0 0 0 0 0 0 0 0 0 0 0.25 0"/>
<feBlend mode="normal" in2="BackgroundImageFix" result="effect1_dropShadow_2234_1942"/>
<feBlend mode="normal" in="SourceGraphic" in2="effect1_dropShadow_2234_1942" result="shape"/>
</filter>
</defs>
</svg>
