<svg width="497" height="125" viewBox="0 0 497 125" fill="none" xmlns="http://www.w3.org/2000/svg">
<path d="M148 2.7998H172.8C176.4 2.7998 179.5 3.1998 182.2 3.9998C184.8 4.7998 187 5.89981 188.8 7.39981C190.5 8.89981 191.8 10.6998 192.7 12.7998C193.6 14.8998 194 17.2998 194 19.9998C194 22.4998 193.6 24.7998 192.7 26.8998C191.9 28.9998 190.6 30.8998 188.8 32.3998C187.1 33.8998 184.9 35.1998 182.2 35.9998C179.6 36.8998 176.4 37.2998 172.8 37.2998H157.5V49.7998H148V2.7998ZM173 28.9998C174.8 28.9998 176.4 28.7998 177.7 28.3998C179.1 27.9998 180.2 27.2998 181.1 26.5998C182 25.7998 182.7 24.7998 183.1 23.6998C183.6 22.5998 183.8 21.2998 183.8 19.8998C183.8 17.0998 182.9 14.9998 181.1 13.3998C179.3 11.7998 176.6 11.0998 173 11.0998H157.5V28.9998H173Z" fill="white"/>
<path d="M201.6 38.5002C201.6 36.8002 202 35.2002 202.7 33.8002C203.4 32.4002 204.6 31.2002 206 30.2002C207.5 29.2002 209.3 28.4002 211.5 27.9002C213.7 27.3002 216.3 27.1002 219.3 27.1002C221.5 27.1002 223.8 27.3002 226.2 27.6002C228.6 27.9002 231.1 28.4002 233.7 29.1002C233.6 28.0002 233.3 26.9002 232.7 26.0002C232.1 25.0002 231.3 24.2002 230.3 23.5002C229.3 22.8002 228 22.3002 226.6 21.9002C225.2 21.5002 223.5 21.3002 221.7 21.3002C220.7 21.3002 219.6 21.4002 218.4 21.5002C217.2 21.6002 216 21.8002 214.7 22.0002C213.4 22.2002 212.1 22.5002 210.9 22.9002C209.7 23.3002 208.5 23.7002 207.4 24.2002L204.7 16.9002C206 16.4002 207.5 16.0002 209 15.6002C210.5 15.2002 212.1 14.9002 213.7 14.6002C215.3 14.3002 216.9 14.1002 218.5 13.9002C220.1 13.7002 221.7 13.7002 223.2 13.7002C229.8 13.7002 234.8 15.4002 238 18.8002C241.2 22.2002 242.8 27.4002 242.8 34.3002V49.7002H233.9V46.4002C233 46.9002 232 47.5002 230.9 47.9002C229.8 48.4002 228.6 48.8002 227.3 49.2002C226 49.6002 224.6 49.8002 223.1 50.0002C221.6 50.2002 220.1 50.3002 218.4 50.3002C215.6 50.3002 213.2 50.0002 211.1 49.4002C209 48.8002 207.3 48.0002 205.9 46.9002C204.5 45.8002 203.4 44.6002 202.7 43.2002C201.9 41.7002 201.6 40.2002 201.6 38.5002ZM211 38.2002C211 38.8002 211.2 39.3002 211.5 39.9002C211.8 40.4002 212.3 40.9002 212.9 41.3002C213.6 41.7002 214.4 42.0002 215.4 42.3002C216.4 42.5002 217.7 42.7002 219.2 42.7002C220.8 42.7002 222.3 42.6002 223.7 42.3002C225.2 42.0002 226.5 41.6002 227.8 41.2002C229.1 40.7002 230.2 40.2002 231.2 39.6002C232.2 39.0002 233.1 38.4002 233.8 37.7002V36.1002C232.4 35.7002 231.1 35.4002 229.7 35.1002C228.4 34.8002 227.1 34.6002 225.9 34.5002C224.7 34.3002 223.6 34.2002 222.5 34.2002C221.4 34.1002 220.5 34.1002 219.7 34.1002C218 34.1002 216.7 34.2002 215.5 34.4002C214.4 34.6002 213.5 34.9002 212.8 35.3002C212.1 35.7002 211.6 36.1002 211.4 36.6002C211.1 37.1002 211 37.7002 211 38.2002Z" fill="white"/>
<path d="M254.5 14.3002H263.4V17.3002C265.8 16.0002 268 15.0002 270.2 14.5002C272.4 14.0002 274.5 13.7002 276.5 13.7002C279.2 13.7002 281.7 14.1002 284 14.9002C286.3 15.7002 288.3 16.9002 290 18.4002C291.7 20.0002 293 21.9002 293.9 24.3002C294.9 26.6002 295.3 29.3002 295.3 32.4002V49.8002H286.4V33.8002C286.4 31.9002 286.1 30.1002 285.6 28.6002C285.1 27.1002 284.3 25.8002 283.2 24.7002C282.2 23.6002 280.9 22.8002 279.4 22.3002C277.9 21.7002 276.3 21.5002 274.5 21.5002C273.5 21.5002 272.5 21.6002 271.5 21.8002C270.5 22.0002 269.5 22.3002 268.5 22.7002C267.5 23.1002 266.6 23.5002 265.7 24.1002C264.8 24.6002 264 25.3002 263.2 26.0002V49.9002H254.3V14.3002H254.5Z" fill="white"/>
<path d="M304.2 31.9998C304.2 29.4998 304.7 27.0998 305.7 24.8998C306.7 22.6998 308.2 20.6998 310.1 19.0998C312 17.3998 314.3 16.0998 317.1 15.1998C319.8 14.1998 322.9 13.7998 326.3 13.7998C329.7 13.7998 332.7 14.2998 335.4 15.1998C338.1 16.1998 340.4 17.4998 342.3 19.0998C344.2 20.7998 345.7 22.6998 346.7 24.8998C347.7 27.0998 348.3 29.4998 348.3 31.9998C348.3 34.4998 347.8 36.8998 346.7 39.0998C345.7 41.2998 344.2 43.2998 342.3 44.8998C340.4 46.5998 338.1 47.8998 335.4 48.7998C332.7 49.7998 329.6 50.1998 326.3 50.1998C322.9 50.1998 319.9 49.6998 317.1 48.7998C314.4 47.7998 312.1 46.4998 310.1 44.8998C308.2 43.1998 306.7 41.2998 305.7 39.0998C304.7 36.8998 304.2 34.4998 304.2 31.9998ZM313.6 31.9998C313.6 33.3998 313.9 34.7998 314.4 36.0998C315 37.3998 315.8 38.4998 316.9 39.4998C318 40.4998 319.3 41.1998 320.9 41.7998C322.5 42.3998 324.3 42.5998 326.3 42.5998C328.3 42.5998 330.1 42.2998 331.7 41.7998C333.3 41.1998 334.6 40.3998 335.7 39.4998C336.8 38.4998 337.6 37.3998 338.2 36.0998C338.8 34.7998 339.1 33.4998 339.1 31.9998C339.1 30.4998 338.8 29.1998 338.2 27.8998C337.6 26.5998 336.8 25.4998 335.7 24.4998C334.6 23.4998 333.3 22.6998 331.7 22.1998C330.1 21.5998 328.4 21.2998 326.3 21.2998C324.3 21.2998 322.5 21.5998 320.9 22.1998C319.3 22.7998 318 23.4998 316.9 24.4998C315.8 25.4998 315 26.5998 314.4 27.8998C313.8 29.1998 313.6 30.4998 313.6 31.9998Z" fill="white"/>
<path d="M366 64.1002H357.1V14.3002H366V17.6002C366.8 17.1002 367.7 16.5002 368.8 16.1002C369.9 15.6002 371 15.2002 372.2 14.8002C373.4 14.4002 374.7 14.2002 376 14.0002C377.3 13.8002 378.6 13.7002 379.9 13.7002C382.9 13.7002 385.7 14.1002 388.2 15.0002C390.7 15.9002 392.9 17.1002 394.7 18.7002C396.5 20.3002 397.9 22.2002 398.9 24.5002C399.9 26.7002 400.4 29.2002 400.4 31.9002C400.4 34.7002 399.9 37.3002 398.8 39.6002C397.7 41.9002 396.3 43.8002 394.4 45.4002C392.5 47.0002 390.3 48.2002 387.7 49.1002C385.1 50.0002 382.3 50.4002 379.3 50.4002C378 50.4002 376.7 50.3002 375.5 50.2002C374.3 50.0002 373.1 49.8002 371.9 49.5002C370.8 49.2002 369.7 48.9002 368.7 48.5002C367.7 48.1002 366.8 47.7002 366 47.2002V64.1002ZM366 38.5002C366.9 39.2002 367.9 39.8002 368.9 40.3002C369.9 40.8002 370.9 41.2002 372 41.5002C373 41.8002 374.1 42.1002 375.2 42.2002C376.3 42.3002 377.3 42.4002 378.3 42.4002C380.3 42.4002 382.2 42.1002 383.7 41.6002C385.3 41.0002 386.6 40.3002 387.7 39.3002C388.8 38.3002 389.6 37.2002 390.2 35.9002C390.8 34.6002 391.1 33.2002 391.1 31.7002C391.1 30.3002 390.8 28.9002 390.2 27.7002C389.6 26.4002 388.8 25.3002 387.7 24.4002C386.6 23.4002 385.3 22.7002 383.8 22.1002C382.3 21.5002 380.6 21.3002 378.7 21.3002C377.5 21.3002 376.3 21.4002 375.1 21.7002C373.9 21.9002 372.7 22.2002 371.6 22.7002C370.5 23.1002 369.5 23.6002 368.5 24.2002C367.5 24.8002 366.7 25.5002 366 26.2002V38.5002Z" fill="white"/>
<path d="M414.2 20.9002H405.6V14.2002H414.2V3.2002H423.1V14.2002H431.7V20.9002H423.1V49.6002H414.2V20.9002Z" fill="white"/>
<path d="M444.3 9.4C443.4 9.4 442.6 9.3 441.9 9C441.2 8.7 440.6 8.4 440.1 8C439.6 7.6 439.2 7.1 438.9 6.5C438.6 5.9 438.5 5.3 438.5 4.7C438.5 4 438.6 3.4 438.9 2.9C439.2 2.3 439.6 1.8 440.1 1.4C440.6 1 441.2 0.6 441.9 0.4C442.6 0.1 443.4 0 444.3 0C445.2 0 446 0.1 446.7 0.4C447.4 0.6 448 1 448.5 1.4C449 1.8 449.4 2.3 449.6 2.9C449.9 3.5 450 4.1 450 4.7C450 5.3 449.9 6 449.6 6.5C449.3 7.1 449 7.6 448.5 8C448 8.4 447.4 8.8 446.7 9C446 9.3 445.2 9.4 444.3 9.4ZM439.8 14.3H448.7V49.7H439.8V14.3Z" fill="white"/>
<path d="M458 32C458 29.4 458.5 27 459.4 24.7C460.4 22.4 461.8 20.5 463.6 18.8C465.4 17.1 467.7 15.8 470.3 14.9C473 14 476 13.5 479.4 13.5C480.9 13.5 482.4 13.6 483.9 13.8C485.4 14 486.8 14.2 488.2 14.6C489.6 14.9 490.9 15.3 492.1 15.8C493.3 16.2 494.4 16.7 495.3 17.3L491.2 24C489.3 23.1 487.4 22.4 485.7 22C484 21.6 482.2 21.4 480.4 21.4C478.4 21.4 476.5 21.7 474.9 22.2C473.3 22.7 471.9 23.5 470.7 24.4C469.6 25.3 468.7 26.5 468.1 27.8C467.5 29.1 467.2 30.5 467.2 32C467.2 33.5 467.5 34.9 468.1 36.2C468.7 37.5 469.6 38.6 470.8 39.5C472 40.4 473.4 41.2 475 41.7C476.6 42.2 478.5 42.5 480.5 42.5C482.7 42.5 484.8 42.2 486.7 41.6C488.7 41 490.5 40.1 492.2 39.1L496.3 45.8C495.2 46.4 494.1 47 492.8 47.6C491.6 48.1 490.2 48.6 488.8 49C487.4 49.4 485.9 49.7 484.3 49.9C482.8 50.1 481.2 50.3 479.5 50.3C476.1 50.3 473.1 49.8 470.4 48.9C467.7 48 465.4 46.7 463.6 45.1C461.7 43.5 460.3 41.5 459.3 39.3C458.5 37.1 458 34.7 458 32Z" fill="white"/>
<path d="M148 59.5H157.5V77C158.3 76.5 159.2 76 160.3 75.5C161.4 75 162.5 74.6 163.7 74.3C164.9 73.9 166.2 73.7 167.5 73.5C168.8 73.3 170.1 73.2 171.4 73.2C174.4 73.2 177.2 73.6 179.7 74.5C182.2 75.4 184.4 76.6 186.2 78.2C188 79.8 189.4 81.7 190.4 83.9C191.4 86.1 191.9 88.5 191.9 91.2C191.9 94 191.4 96.5 190.3 98.8C189.2 101 187.8 103 185.9 104.6C184 106.2 181.8 107.4 179.2 108.3C176.6 109.2 173.9 109.6 170.9 109.6C169.6 109.6 168.3 109.5 167.1 109.4C165.9 109.2 164.7 109 163.5 108.7C162.4 108.4 161.3 108.1 160.3 107.7C159.3 107.3 158.4 106.9 157.6 106.4V108.9H148V59.5ZM157.5 97.8C158.4 98.5 159.4 99.1 160.4 99.6C161.4 100.1 162.4 100.5 163.5 100.8C164.5 101.1 165.6 101.4 166.7 101.5C167.8 101.6 168.8 101.7 169.8 101.7C171.8 101.7 173.7 101.4 175.2 100.9C176.8 100.3 178.1 99.6 179.2 98.6C180.3 97.6 181.1 96.5 181.7 95.2C182.3 93.9 182.6 92.5 182.6 91C182.6 89.6 182.3 88.3 181.7 87C181.1 85.8 180.3 84.7 179.2 83.7C178.1 82.7 176.8 82 175.3 81.5C173.8 80.9 172.1 80.7 170.2 80.7C169 80.7 167.8 80.8 166.6 81.1C165.4 81.3 164.2 81.6 163.1 82.1C162 82.5 161 83 160 83.6C159 84.2 158.2 84.9 157.5 85.6V97.8Z" fill="white"/>
<path d="M204.3 113.2C205.2 113.8 206.2 114.3 207.3 114.8C208.4 115.3 209.5 115.6 210.7 115.9C211.9 116.2 213.1 116.4 214.3 116.6C215.5 116.8 216.7 116.8 217.9 116.8C222 116.8 225.1 115.9 227.3 114.2C229.5 112.5 230.6 109.9 230.6 106.4V105.2C229.8 105.7 228.9 106.2 228 106.7C227 107.1 226 107.5 224.9 107.8C223.8 108.1 222.6 108.4 221.4 108.5C220.2 108.7 218.9 108.7 217.7 108.7C215 108.7 212.6 108.3 210.4 107.5C208.3 106.7 206.5 105.6 205 104C203.5 102.5 202.4 100.6 201.6 98.4002C200.8 96.2002 200.4 93.6002 200.4 90.8002V73.7002H209.3V88.5002C209.3 92.7002 210.1 95.9002 211.7 97.9002C213.3 99.9002 215.9 100.9 219.4 100.9C221.9 100.9 224.1 100.5 226 99.6002C227.9 98.7002 229.5 97.6002 230.6 96.3002V73.7002H239.5V104.8C239.5 108.2 239 111.1 238.1 113.5C237.1 116 235.7 118 233.9 119.7C232.1 121.3 229.8 122.5 227.2 123.3C224.5 124.1 221.5 124.5 218.1 124.5C214.8 124.5 211.7 124.2 208.9 123.5C206 122.8 203.4 121.9 201 120.7L204.3 113.2Z" fill="white"/>
<path d="M256.5 80.2998H247.9V73.6998H256.5V62.7998H265.4V73.6998H274V80.2998H265.4V108.8H256.5V80.2998Z" fill="white"/>
<path d="M280.1 91.2001C280.1 88.8001 280.6 86.5001 281.6 84.4001C282.6 82.2001 284 80.3001 285.8 78.6001C287.6 76.9001 289.9 75.6001 292.6 74.6001C295.3 73.6001 298.3 73.1001 301.7 73.1001C305.1 73.1001 308.1 73.6001 310.8 74.6001C313.5 75.6001 315.8 77.0001 317.7 78.7001C319.6 80.4001 321.1 82.5001 322.1 84.9001C323.1 87.3001 323.6 89.8001 323.6 92.5001C323.6 92.8001 323.6 93.2001 323.6 93.6001C323.6 94.0001 323.6 94.3001 323.5 94.6001H290C290.4 95.7001 291 96.6001 291.8 97.5001C292.7 98.4001 293.7 99.1001 295 99.8001C296.3 100.4 297.8 100.9 299.4 101.3C301.1 101.6 302.9 101.8 305 101.8C307.1 101.8 309.1 101.6 311.1 101.2C313.1 100.8 315.1 100.2 316.9 99.6001L319.9 106.3C318.7 106.8 317.6 107.3 316.4 107.7C315.2 108.1 314 108.4 312.7 108.7C311.4 109 310.1 109.2 308.6 109.3C307.2 109.4 305.7 109.5 304.2 109.5C300.2 109.5 296.7 109 293.7 108.1C290.7 107.1 288.2 105.8 286.2 104.2C284.2 102.6 282.7 100.6 281.6 98.4001C280.6 96.1001 280.1 93.7001 280.1 91.2001ZM314.2 87.7001C313.9 86.7001 313.4 85.8001 312.7 85.0001C312 84.1001 311.2 83.4001 310.2 82.8001C309.2 82.2001 308 81.7001 306.7 81.3001C305.4 80.9001 303.9 80.8001 302.3 80.8001C300.6 80.8001 299.1 81.0001 297.7 81.4001C296.3 81.8001 295.1 82.3001 294.1 82.9001C293.1 83.5001 292.2 84.3001 291.5 85.1001C290.8 85.9001 290.3 86.8001 290 87.7001H314.2Z" fill="white"/>
<path fill-rule="evenodd" clip-rule="evenodd" d="M39.9 55.9C17.9 55.9 0 38 0 16V0H24.8V13.9C24.8 25.2 34 34.3 45.2 34.2H64.8C74.2 34.2 82.4 35.3 89.3 37.6C96.2 39.9 101.9 43.1 106.4 47.2C111 51.3 114.3 56.2 116.5 61.7C118.7 67.3 119.8 73.4 119.8 80C119.8 87 118.7 93.3 116.4 98.9C114.2 104.5 110.8 109.2 106.3 113C101.7 116.9 96 119.9 89.1 121.9C82.2 123.9 74.2 125 64.8 125H37.2V117.8C37.2 109.8 43.7 103.2 51.8 103.2H65.5C74.9 103.2 82 101.1 86.7 97C91.5 92.9 93.9 87.3 93.9 79.9C93.9 76.3 93.3 72.9 92.1 69.9C90.9 66.9 89.2 64.4 86.8 62.3C84.4 60.2 81.5 58.6 77.9 57.5C74.4 56.4 70.3 55.8 65.6 55.8H39.9V55.9Z" fill="#401F65"/>
<path fill-rule="evenodd" clip-rule="evenodd" d="M40 69.1C17.9 69.1 0 87 0 109V125H24.9V111.1C24.9 99.8 34.1 90.7 45.4 90.8H65.1C74.6 90.8 82.7 89.7 89.7 87.4C96.6 85.1 102.4 81.9 106.9 77.8C111.5 73.7 114.9 68.8 117.1 63.3C119.3 57.7 120.4 51.6 120.4 45C120.4 38 119.3 31.7 117 26.1C114.8 20.5 111.4 15.8 106.8 12C102.2 8.1 96.5 5.1 89.5 3.1C82.6 1 74.4 0 64.9 0H37.3V7.2C37.3 15.2 43.8 21.8 51.9 21.8H65.6C75.1 21.8 82.1 23.9 86.9 28C91.6 32 94 37.7 94 45.1C94 48.7 93.4 52.1 92.2 55.1C91 58.1 89.3 60.6 86.8 62.7C84.4 64.8 81.5 66.4 77.9 67.5C74.4 68.6 70.3 69.2 65.5 69.2H40V69.1Z" fill="#9436FE"/>
</svg>
