<svg width="121" height="125" viewBox="0 0 121 125" fill="none" xmlns="http://www.w3.org/2000/svg">
<path fill-rule="evenodd" clip-rule="evenodd" d="M39.9 55.9C17.9 55.9 0 38 0 16V0H24.8V13.9C24.8 25.2 34 34.3 45.2 34.2H64.8C74.2 34.2 82.4 35.3 89.3 37.6C96.2 39.9 101.9 43.1 106.4 47.2C111 51.3 114.3 56.2 116.5 61.7C118.7 67.3 119.8 73.4 119.8 80C119.8 87 118.7 93.3 116.4 98.9C114.2 104.5 110.8 109.2 106.3 113C101.7 116.9 96 119.9 89.1 121.9C82.2 123.9 74.2 125 64.8 125H37.2V117.8C37.2 109.8 43.7 103.2 51.8 103.2H65.5C74.9 103.2 82 101.1 86.7 97C91.5 92.9 93.9 87.3 93.9 79.9C93.9 76.3 93.3 72.9 92.1 69.9C90.9 66.9 89.2 64.4 86.8 62.3C84.4 60.2 81.5 58.6 77.9 57.5C74.4 56.4 70.3 55.8 65.6 55.8H39.9V55.9Z" fill="#4C2875"/>
<path fill-rule="evenodd" clip-rule="evenodd" d="M40 69.1C17.9 69.1 0 87 0 109V125H24.9V111.1C24.9 99.8 34.1 90.7 45.4 90.8H65.1C74.6 90.8 82.7 89.7 89.7 87.4C96.6 85.1 102.4 81.9 106.9 77.8C111.5 73.7 114.9 68.8 117.1 63.3C119.3 57.7 120.4 51.6 120.4 45C120.4 38 119.3 31.7 117 26.1C114.8 20.5 111.4 15.8 106.8 12C102.2 8.1 96.5 5.1 89.5 3.1C82.6 1 74.4 0 64.9 0H37.3V7.2C37.3 15.2 43.8 21.8 51.9 21.8H65.6C75.1 21.8 82.1 23.9 86.9 28C91.6 32 94 37.7 94 45.1C94 48.7 93.4 52.1 92.2 55.1C91 58.1 89.3 60.6 86.8 62.7C84.4 64.8 81.5 66.4 77.9 67.5C74.4 68.6 70.3 69.2 65.5 69.2H40V69.1Z" fill="#9436FE"/>
</svg>
