<svg width="148" height="148" viewBox="0 0 148 148" fill="none" xmlns="http://www.w3.org/2000/svg">
<circle cx="74" cy="74" r="73.5" transform="rotate(180 74 74)" stroke="#FAF7F5"/>
<mask id="path-2-inside-1_2139_4262" fill="white">
<path fill-rule="evenodd" clip-rule="evenodd" d="M49.9581 74.3223L67.6357 92L73.9997 85.636L67.3637 79L96 79L96 70L67.0078 70L74 63.0078L67.636 56.6439L49.9584 74.3215L49.9586 74.3218L49.9581 74.3223Z"/>
</mask>
<path d="M67.6357 92L66.9286 92.7071L67.6357 93.4142L68.3428 92.7071L67.6357 92ZM49.9581 74.3223L49.251 73.6152L48.5439 74.3223L49.251 75.0294L49.9581 74.3223ZM73.9997 85.636L74.7068 86.3431L75.4139 85.636L74.7068 84.9289L73.9997 85.636ZM67.3637 79L67.3637 78L64.9494 78L66.6566 79.7071L67.3637 79ZM96 79L96 80L97 80L97 79L96 79ZM96 70L97 70L97 69L96 69L96 70ZM67.0078 70L66.3007 69.2929L64.5936 71L67.0078 71L67.0078 70ZM74 63.0078L74.7071 63.7149L75.4142 63.0078L74.7071 62.3007L74 63.0078ZM67.636 56.6439L68.3431 55.9367L67.636 55.2296L66.9289 55.9367L67.636 56.6439ZM49.9584 74.3215L49.2513 73.6144L48.5442 74.3215L49.2513 75.0286L49.9584 74.3215ZM49.9586 74.3218L50.6657 75.0289L51.3728 74.3218L50.6657 73.6147L49.9586 74.3218ZM68.3428 91.2929L50.6652 73.6152L49.251 75.0294L66.9286 92.7071L68.3428 91.2929ZM73.2926 84.9289L66.9286 91.2929L68.3428 92.7071L74.7068 86.3431L73.2926 84.9289ZM66.6566 79.7071L73.2926 86.3431L74.7068 84.9289L68.0708 78.2929L66.6566 79.7071ZM67.3637 80L96 80L96 78L67.3637 78L67.3637 80ZM97 79L97 70L95 70L95 79L97 79ZM96 69L67.0078 69L67.0078 71L96 71L96 69ZM67.7149 70.7071L74.7071 63.7149L73.2929 62.3007L66.3007 69.2929L67.7149 70.7071ZM74.7071 62.3007L68.3431 55.9367L66.9289 57.351L73.2929 63.7149L74.7071 62.3007ZM66.9289 55.9367L49.2513 73.6144L50.6655 75.0286L68.3431 57.351L66.9289 55.9367ZM49.2513 75.0286L49.2515 75.0289L50.6657 73.6147L50.6655 73.6144L49.2513 75.0286ZM50.6652 75.0294L50.6657 75.0289L49.2515 73.6147L49.251 73.6152L50.6652 75.0294Z" fill="#FAF7F5" mask="url(#path-2-inside-1_2139_4262)"/>
</svg>
