<svg width="191" height="144" viewBox="0 0 191 144" fill="none" xmlns="http://www.w3.org/2000/svg">
<path d="M0 120.11C0 116.348 1.3378 113.149 4.01341 110.512C6.68901 107.84 9.93541 106.504 13.7526 106.504C17.5698 106.504 20.8162 107.84 23.4918 110.512C26.2031 113.149 27.5587 116.348 27.5587 120.11C27.5587 123.872 26.2031 127.089 23.4918 129.761C20.8162 132.398 17.5698 133.716 13.7526 133.716C11.1484 133.716 8.90084 133.048 7.01008 131.712V143.842H0V120.11ZM8.88301 125.067C10.203 126.368 11.844 127.019 13.8061 127.019C15.7682 127.019 17.3914 126.368 18.6757 125.067C19.96 123.731 20.6022 122.079 20.6022 120.11C20.6022 118.141 19.96 116.506 18.6757 115.205C17.3914 113.869 15.7682 113.201 13.8061 113.201C11.844 113.201 10.203 113.869 8.88301 115.205C7.56304 116.506 6.90306 118.141 6.90306 120.11C6.90306 122.079 7.56304 123.731 8.88301 125.067Z" fill="#F3F3F3"/>
<path d="M34.2645 110.512C36.9757 107.84 40.24 106.504 44.0572 106.504C47.8744 106.504 51.1208 107.84 53.7964 110.512C56.5076 113.149 57.8633 116.348 57.8633 120.11C57.8633 123.872 56.5076 127.089 53.7964 129.761C51.1208 132.398 47.8744 133.716 44.0572 133.716C40.24 133.716 36.9757 132.398 34.2645 129.761C31.5889 127.089 30.2511 123.872 30.2511 120.11C30.2511 116.348 31.5889 113.149 34.2645 110.512ZM48.9803 115.205C47.696 113.869 46.0728 113.201 44.1107 113.201C42.1486 113.201 40.5075 113.869 39.1876 115.205C37.8676 116.506 37.2076 118.141 37.2076 120.11C37.2076 122.079 37.8676 123.731 39.1876 125.067C40.5075 126.368 42.1486 127.019 44.1107 127.019C46.0728 127.019 47.696 126.368 48.9803 125.067C50.2646 123.731 50.9067 122.079 50.9067 120.11C50.9067 118.141 50.2646 116.506 48.9803 115.205Z" fill="#F3F3F3"/>
<path d="M71.7982 133.716C68.5874 133.716 65.8583 132.925 63.6108 131.343C61.399 129.761 60.2931 127.564 60.2931 124.751H66.9286C66.9286 125.595 67.3923 126.28 68.3199 126.808C69.2831 127.335 70.496 127.599 71.9587 127.599C73.35 127.599 74.4202 127.37 75.1694 126.913C75.9543 126.421 76.3467 125.806 76.3467 125.067C76.3467 124.399 75.9543 123.872 75.1694 123.485C74.3846 123.098 73.4035 122.835 72.2263 122.694C71.0847 122.554 69.8182 122.343 68.4269 122.061C67.0713 121.745 65.8048 121.358 64.6275 120.901C63.486 120.444 62.5227 119.671 61.7379 118.581C60.953 117.491 60.5606 116.119 60.5606 114.467C60.5606 112.182 61.613 110.283 63.7178 108.771C65.8583 107.26 68.4982 106.504 71.6376 106.504C74.8483 106.504 77.4704 107.277 79.5039 108.824C81.5374 110.336 82.5541 112.445 82.5541 115.153H75.9186C75.9186 114.414 75.4727 113.799 74.5808 113.307C73.7246 112.815 72.7079 112.568 71.5306 112.568C70.389 112.568 69.4258 112.797 68.6409 113.254C67.8918 113.711 67.5172 114.291 67.5172 114.994C67.5172 115.662 68.0523 116.172 69.1226 116.524C70.1928 116.875 71.4949 117.174 73.0289 117.42C74.5986 117.631 76.1505 117.948 77.6845 118.37C79.2185 118.792 80.5206 119.583 81.5909 120.743C82.6968 121.868 83.2676 123.362 83.3033 125.226C83.3389 128.038 82.2865 130.165 80.146 131.607C78.0412 133.013 75.2586 133.716 71.7982 133.716Z" fill="#F3F3F3"/>
<path d="M99.9025 113.623H95.0864V120.848C95.0864 122.958 95.4609 124.47 96.2101 125.384C96.9593 126.298 98.1901 126.755 99.9025 126.755V133.453C96.2993 133.453 93.4275 132.416 91.287 130.341C89.1822 128.267 88.1298 125.103 88.1298 120.848V113.623H84.1699V106.926H88.1298V96.4307H95.0864V106.926H99.9025V113.623Z" fill="#F3F3F3"/>
<path d="M115.598 133.716C111.781 133.716 108.517 132.398 105.806 129.761C103.13 127.089 101.792 123.872 101.792 120.11C101.792 116.348 103.13 113.149 105.806 110.512C108.517 107.84 111.781 106.504 115.598 106.504C119.415 106.504 122.662 107.84 125.337 110.512C128.013 113.149 129.351 116.348 129.351 120.11V133.294H122.394V130.499C122.002 131.378 121.146 132.134 119.826 132.767C118.506 133.4 117.097 133.716 115.598 133.716ZM110.729 125.067C112.049 126.368 113.69 127.019 115.652 127.019C117.614 127.019 119.237 126.368 120.521 125.067C121.806 123.731 122.448 122.079 122.448 120.11C122.448 118.141 121.806 116.506 120.521 115.205C119.237 113.869 117.614 113.201 115.652 113.201C113.69 113.201 112.049 113.869 110.729 115.205C109.409 116.506 108.749 118.141 108.749 120.11C108.749 122.079 109.409 123.731 110.729 125.067Z" fill="#F3F3F3"/>
<path d="M146.117 143.842C143.334 143.842 140.801 143.086 138.518 141.574C136.235 140.098 134.558 138.129 133.488 135.668H141.943C143.227 136.652 144.618 137.144 146.117 137.144C147.972 137.144 149.542 136.687 150.826 135.773C152.146 134.859 152.806 133.611 152.806 132.029V131.976C150.737 133.136 148.507 133.716 146.117 133.716C142.3 133.716 139.035 132.398 136.324 129.761C133.649 127.089 132.311 123.872 132.311 120.11C132.311 116.348 133.649 113.149 136.324 110.512C139.035 107.84 142.3 106.504 146.117 106.504C149.934 106.504 153.18 107.84 155.856 110.512C158.567 113.149 159.923 116.348 159.923 120.11V130.236C159.923 133.998 158.567 137.197 155.856 139.834C153.18 142.506 149.934 143.842 146.117 143.842ZM141.247 125.067C142.567 126.368 144.208 127.019 146.17 127.019C148.132 127.019 149.756 126.368 151.04 125.067C152.324 123.731 152.966 122.079 152.966 120.11C152.966 118.141 152.324 116.506 151.04 115.205C149.756 113.869 148.132 113.201 146.17 113.201C144.208 113.201 142.567 113.869 141.247 115.205C139.927 116.506 139.267 118.141 139.267 120.11C139.267 122.079 139.927 123.731 141.247 125.067Z" fill="#F3F3F3"/>
<path d="M162.882 120.163C162.882 116.436 164.184 113.236 166.788 110.564C169.428 107.857 172.656 106.504 176.474 106.504C180.041 106.504 183.216 107.681 185.999 110.037C188.817 112.393 190.298 115.557 190.44 119.53C190.476 120.655 190.405 121.745 190.226 122.8H170.373C170.694 124.101 171.39 125.138 172.46 125.911C173.566 126.65 174.904 127.019 176.474 127.019C178.257 127.019 179.791 126.509 181.076 125.489L189.37 125.542C188.264 127.968 186.57 129.937 184.286 131.449C182.003 132.96 179.47 133.716 176.688 133.716C172.835 133.716 169.571 132.398 166.895 129.761C164.219 127.124 162.882 123.925 162.882 120.163ZM170.373 117.315H183.002C182.467 116.084 181.611 115.1 180.434 114.362C179.292 113.588 178.043 113.201 176.688 113.201C173.655 113.201 171.551 114.573 170.373 117.315Z" fill="#F3F3F3"/>
<path fill-rule="evenodd" clip-rule="evenodd" d="M107.787 15.2509L100.535 2.8193C98.3416 -0.939767 92.8574 -0.939766 90.6643 2.8193L83.4118 15.2509H107.787ZM113.014 24.2198C111.996 22.4764 110.115 21.4025 108.08 21.4025H83.0953C81.0594 21.4025 79.1782 22.477 78.1604 24.2213L48.2168 75.5368H62.5684L71.1993 60.7483L78.2089 72.7244C79.2277 74.4651 81.1069 75.5368 83.14 75.5368H108.04C110.083 75.5368 111.97 74.4543 112.985 72.6998L125.461 51.1353C126.469 49.3935 126.464 47.253 125.45 45.5153L113.014 24.2198ZM104.181 63.2336H87.0433L78.4124 48.445L87.0184 33.7058H104.206L112.811 48.445L104.181 63.2336ZM129.974 54.3998L142.236 75.4384H127.884L122.835 66.8015L129.974 54.3998Z" fill="url(#paint0_linear_2015_5514)"/>
<path fill-rule="evenodd" clip-rule="evenodd" d="M107.787 15.2509L100.535 2.8193C98.3416 -0.939767 92.8574 -0.939766 90.6643 2.8193L83.4118 15.2509H107.787ZM113.014 24.2198C111.996 22.4764 110.115 21.4025 108.08 21.4025H83.0953C81.0594 21.4025 79.1782 22.477 78.1604 24.2213L48.2168 75.5368H62.5684L71.1993 60.7483L78.2089 72.7244C79.2277 74.4651 81.1069 75.5368 83.14 75.5368H108.04C110.083 75.5368 111.97 74.4543 112.985 72.6998L125.461 51.1353C126.469 49.3935 126.464 47.253 125.45 45.5153L113.014 24.2198ZM104.181 63.2336H87.0433L78.4124 48.445L87.0184 33.7058H104.206L112.811 48.445L104.181 63.2336ZM129.974 54.3998L142.236 75.4384H127.884L122.835 66.8015L129.974 54.3998Z" fill="url(#paint1_linear_2015_5514)"/>
<defs>
<linearGradient id="paint0_linear_2015_5514" x1="95.2264" y1="0" x2="95.2264" y2="75.5368" gradientUnits="userSpaceOnUse">
<stop stop-color="#AFC2A8"/>
<stop offset="1" stop-color="#798C7F"/>
</linearGradient>
<linearGradient id="paint1_linear_2015_5514" x1="95.2264" y1="0" x2="95.2264" y2="75.5368" gradientUnits="userSpaceOnUse">
<stop stop-color="#798C7F"/>
<stop offset="1" stop-color="#3C423E"/>
</linearGradient>
</defs>
</svg>
