<svg width="157" height="137" viewBox="0 0 157 137" fill="none" xmlns="http://www.w3.org/2000/svg">
<path opacity="0.4" d="M97.8211 102.233C81.815 111.474 65.1221 115.978 51.087 115.81C37.0394 115.642 25.7528 110.804 20.3707 101.482C14.9887 92.1599 16.4422 79.9664 23.3205 67.7168C30.1927 55.4781 42.4391 43.2733 58.4452 34.0322C74.4513 24.791 91.1442 20.2877 105.179 20.4556C119.227 20.6236 130.514 25.4616 135.896 34.7835C141.278 44.1055 139.824 56.299 132.946 68.5486C126.074 80.7872 113.827 92.9921 97.8211 102.233Z" stroke="#121212"/>
<path opacity="0.4" d="M97.8213 34.0322C113.827 43.2733 126.074 55.4782 132.946 67.7168C139.824 79.9664 141.278 92.1599 135.896 101.482C130.514 110.804 119.227 115.642 105.18 115.81C91.1444 115.978 74.4515 111.474 58.4454 102.233C42.4393 92.9922 30.1929 80.7873 23.3207 68.5487C16.4424 56.299 14.9889 44.1055 20.371 34.7836C25.753 25.4617 37.0396 20.6236 51.0872 20.4556C65.1223 20.2878 81.8152 24.7911 97.8213 34.0322Z" stroke="#121212"/>
<path d="M117.729 68C117.729 86.4269 113.269 103.085 106.084 115.12C98.8934 127.165 89.0293 134.5 78.2295 134.5C67.4297 134.5 57.5656 127.165 50.3745 115.12C43.1896 103.085 38.7295 86.4269 38.7295 68C38.7295 49.5731 43.1896 32.9149 50.3745 20.8801C57.5656 8.83509 67.4297 1.5 78.2295 1.5C89.0293 1.5 98.8934 8.83509 106.084 20.8801C113.269 32.9149 117.729 49.5731 117.729 68Z" stroke="#121212"/>
</svg>
